<mxfile host="Electron" modified="2024-01-18T22:31:14.880Z" agent="Mozilla/5.0 (Windows NT 10.0; Win64; x64) AppleWebKit/537.36 (KHTML, like Gecko) draw.io/22.0.3 Chrome/114.0.5735.289 Electron/25.8.4 Safari/537.36" etag="3oqLmnL-DycbDwW--g3B" version="22.0.3" type="device">
  <diagram name="Page-1" id="NDQuw7YIGJvdoO27YrhN">
    <mxGraphModel dx="945" dy="547" grid="1" gridSize="10" guides="1" tooltips="1" connect="1" arrows="1" fold="1" page="1" pageScale="1" pageWidth="827" pageHeight="1169" math="0" shadow="0">
      <root>
        <mxCell id="0" />
        <mxCell id="1" parent="0" />
        <mxCell id="2lFEA2S9kA2R9MNG4x0S-2" value="" style="rounded=0;whiteSpace=wrap;html=1;fillColor=none;" vertex="1" parent="1">
          <mxGeometry x="80" y="200" width="640" height="360" as="geometry" />
        </mxCell>
        <mxCell id="2lFEA2S9kA2R9MNG4x0S-3" value="" style="rounded=0;whiteSpace=wrap;html=1;fillColor=none;" vertex="1" parent="1">
          <mxGeometry x="80" y="200" width="640" height="40" as="geometry" />
        </mxCell>
        <mxCell id="2lFEA2S9kA2R9MNG4x0S-4" value="" style="rounded=0;whiteSpace=wrap;html=1;fillColor=none;" vertex="1" parent="1">
          <mxGeometry x="150" y="310" width="500" height="180" as="geometry" />
        </mxCell>
        <mxCell id="2lFEA2S9kA2R9MNG4x0S-5" value="" style="rounded=0;whiteSpace=wrap;html=1;fillColor=none;fontColor=#ffffff;strokeColor=#ff0000;" vertex="1" parent="1">
          <mxGeometry x="400" y="320" width="240" height="160" as="geometry" />
        </mxCell>
        <mxCell id="2lFEA2S9kA2R9MNG4x0S-6" value="" style="rounded=0;whiteSpace=wrap;html=1;fillColor=none;fontColor=#ffffff;strokeColor=#04ff00;" vertex="1" parent="1">
          <mxGeometry x="160" y="320" width="240" height="160" as="geometry" />
        </mxCell>
        <mxCell id="2lFEA2S9kA2R9MNG4x0S-7" value="" style="ellipse;whiteSpace=wrap;html=1;aspect=fixed;fillColor=none;" vertex="1" parent="1">
          <mxGeometry x="440" y="320" width="160" height="160" as="geometry" />
        </mxCell>
        <mxCell id="2lFEA2S9kA2R9MNG4x0S-8" value="&lt;h1&gt;Heading&lt;/h1&gt;&lt;p&gt;Lorem ipsum dolor sit amet, consectetur adipisicing elit, sed do eiusmod tempor incididunt ut labore et dolore magna aliqua.&lt;/p&gt;" style="text;html=1;strokeColor=none;fillColor=none;spacing=5;spacingTop=-20;whiteSpace=wrap;overflow=hidden;rounded=0;" vertex="1" parent="1">
          <mxGeometry x="170" y="330" width="220" height="140" as="geometry" />
        </mxCell>
      </root>
    </mxGraphModel>
  </diagram>
</mxfile>
